<mxfile host="app.diagrams.net" modified="2023-08-15T15:06:43.905Z" agent="Mozilla/5.0 (Windows NT 10.0; Win64; x64) AppleWebKit/537.36 (KHTML, like Gecko) Chrome/115.0.0.0 Safari/537.36" etag="cQewqEHbJTQNaUoMtHBF" version="21.6.7" type="device" pages="2">
  <diagram id="Y_MNX9ecVLGbwLM2I_oD" name="project flow">
    <mxGraphModel dx="1134" dy="660" grid="1" gridSize="10" guides="1" tooltips="1" connect="1" arrows="1" fold="1" page="1" pageScale="1" pageWidth="827" pageHeight="1169" math="0" shadow="0">
      <root>
        <mxCell id="0" />
        <mxCell id="1" parent="0" />
        <mxCell id="IVsl41Sg_7abKxAgzQOR-7" style="edgeStyle=elbowEdgeStyle;rounded=0;orthogonalLoop=1;jettySize=auto;html=1;exitX=1;exitY=0.3333333333333333;exitDx=0;exitDy=0;entryX=0;entryY=0.5;entryDx=0;entryDy=0;exitPerimeter=0;" parent="1" source="IVsl41Sg_7abKxAgzQOR-14" target="IVsl41Sg_7abKxAgzQOR-6" edge="1">
          <mxGeometry relative="1" as="geometry">
            <mxPoint x="230" y="405" as="sourcePoint" />
            <Array as="points">
              <mxPoint x="250" y="360" />
            </Array>
          </mxGeometry>
        </mxCell>
        <mxCell id="IVsl41Sg_7abKxAgzQOR-9" value="" style="edgeStyle=elbowEdgeStyle;rounded=0;orthogonalLoop=1;jettySize=auto;html=1;exitX=1;exitY=0.3333333333333333;exitDx=0;exitDy=0;exitPerimeter=0;" parent="1" source="IVsl41Sg_7abKxAgzQOR-14" target="IVsl41Sg_7abKxAgzQOR-8" edge="1">
          <mxGeometry relative="1" as="geometry">
            <mxPoint x="200" y="410" as="sourcePoint" />
            <Array as="points">
              <mxPoint x="250" y="430" />
            </Array>
          </mxGeometry>
        </mxCell>
        <mxCell id="IVsl41Sg_7abKxAgzQOR-6" value="Register" style="rounded=1;whiteSpace=wrap;html=1;arcSize=0;" parent="1" vertex="1">
          <mxGeometry x="310" y="280" width="110" height="60" as="geometry" />
        </mxCell>
        <mxCell id="IVsl41Sg_7abKxAgzQOR-8" value="Login" style="whiteSpace=wrap;html=1;rounded=1;arcSize=0;" parent="1" vertex="1">
          <mxGeometry x="305" y="440" width="120" height="60" as="geometry" />
        </mxCell>
        <mxCell id="IVsl41Sg_7abKxAgzQOR-17" value="" style="edgeStyle=elbowEdgeStyle;rounded=0;orthogonalLoop=1;jettySize=auto;html=1;exitX=1;exitY=0.5;exitDx=0;exitDy=0;" parent="1" source="IVsl41Sg_7abKxAgzQOR-8" target="IVsl41Sg_7abKxAgzQOR-16" edge="1">
          <mxGeometry relative="1" as="geometry">
            <mxPoint x="600" y="530" as="sourcePoint" />
          </mxGeometry>
        </mxCell>
        <mxCell id="IVsl41Sg_7abKxAgzQOR-19" value="" style="edgeStyle=elbowEdgeStyle;rounded=0;orthogonalLoop=1;jettySize=auto;html=1;exitX=1;exitY=0.5;exitDx=0;exitDy=0;" parent="1" source="IVsl41Sg_7abKxAgzQOR-8" target="IVsl41Sg_7abKxAgzQOR-18" edge="1">
          <mxGeometry relative="1" as="geometry">
            <mxPoint x="600" y="410" as="sourcePoint" />
          </mxGeometry>
        </mxCell>
        <mxCell id="IVsl41Sg_7abKxAgzQOR-14" value="User" style="shape=umlActor;verticalLabelPosition=bottom;verticalAlign=top;html=1;outlineConnect=0;" parent="1" vertex="1">
          <mxGeometry x="150" y="370" width="30" height="60" as="geometry" />
        </mxCell>
        <mxCell id="IVsl41Sg_7abKxAgzQOR-42" value="" style="edgeStyle=elbowEdgeStyle;rounded=0;orthogonalLoop=1;jettySize=auto;html=1;elbow=vertical;" parent="1" source="IVsl41Sg_7abKxAgzQOR-16" target="IVsl41Sg_7abKxAgzQOR-41" edge="1">
          <mxGeometry relative="1" as="geometry" />
        </mxCell>
        <mxCell id="IVsl41Sg_7abKxAgzQOR-44" value="" style="edgeStyle=elbowEdgeStyle;shape=connector;rounded=0;orthogonalLoop=1;jettySize=auto;elbow=vertical;html=1;labelBackgroundColor=default;strokeColor=default;fontFamily=Helvetica;fontSize=11;fontColor=default;endArrow=classic;" parent="1" source="IVsl41Sg_7abKxAgzQOR-16" target="IVsl41Sg_7abKxAgzQOR-43" edge="1">
          <mxGeometry relative="1" as="geometry" />
        </mxCell>
        <mxCell id="IVsl41Sg_7abKxAgzQOR-46" value="" style="edgeStyle=elbowEdgeStyle;shape=connector;rounded=0;orthogonalLoop=1;jettySize=auto;elbow=vertical;html=1;labelBackgroundColor=default;strokeColor=default;fontFamily=Helvetica;fontSize=11;fontColor=default;endArrow=classic;" parent="1" source="IVsl41Sg_7abKxAgzQOR-16" target="IVsl41Sg_7abKxAgzQOR-45" edge="1">
          <mxGeometry relative="1" as="geometry" />
        </mxCell>
        <mxCell id="IVsl41Sg_7abKxAgzQOR-48" value="" style="edgeStyle=elbowEdgeStyle;shape=connector;rounded=0;orthogonalLoop=1;jettySize=auto;elbow=vertical;html=1;labelBackgroundColor=default;strokeColor=default;fontFamily=Helvetica;fontSize=11;fontColor=default;endArrow=classic;" parent="1" source="IVsl41Sg_7abKxAgzQOR-16" target="IVsl41Sg_7abKxAgzQOR-47" edge="1">
          <mxGeometry relative="1" as="geometry" />
        </mxCell>
        <mxCell id="IVsl41Sg_7abKxAgzQOR-16" value="Admin Login" style="whiteSpace=wrap;html=1;rounded=1;arcSize=0;" parent="1" vertex="1">
          <mxGeometry x="660" y="550" width="120" height="60" as="geometry" />
        </mxCell>
        <mxCell id="IVsl41Sg_7abKxAgzQOR-33" value="" style="rounded=0;orthogonalLoop=1;jettySize=auto;html=1;edgeStyle=elbowEdgeStyle;" parent="1" source="IVsl41Sg_7abKxAgzQOR-18" target="IVsl41Sg_7abKxAgzQOR-32" edge="1">
          <mxGeometry relative="1" as="geometry" />
        </mxCell>
        <mxCell id="IVsl41Sg_7abKxAgzQOR-35" value="" style="edgeStyle=elbowEdgeStyle;rounded=0;orthogonalLoop=1;jettySize=auto;html=1;" parent="1" source="IVsl41Sg_7abKxAgzQOR-18" target="IVsl41Sg_7abKxAgzQOR-34" edge="1">
          <mxGeometry relative="1" as="geometry" />
        </mxCell>
        <mxCell id="IVsl41Sg_7abKxAgzQOR-37" value="" style="edgeStyle=elbowEdgeStyle;rounded=0;orthogonalLoop=1;jettySize=auto;html=1;" parent="1" source="IVsl41Sg_7abKxAgzQOR-18" target="IVsl41Sg_7abKxAgzQOR-36" edge="1">
          <mxGeometry relative="1" as="geometry" />
        </mxCell>
        <mxCell id="IVsl41Sg_7abKxAgzQOR-39" value="" style="edgeStyle=elbowEdgeStyle;rounded=0;orthogonalLoop=1;jettySize=auto;html=1;" parent="1" source="IVsl41Sg_7abKxAgzQOR-18" target="IVsl41Sg_7abKxAgzQOR-38" edge="1">
          <mxGeometry relative="1" as="geometry" />
        </mxCell>
        <mxCell id="IVsl41Sg_7abKxAgzQOR-18" value="Student Login" style="whiteSpace=wrap;html=1;rounded=1;arcSize=0;" parent="1" vertex="1">
          <mxGeometry x="660" y="240" width="120" height="60" as="geometry" />
        </mxCell>
        <mxCell id="IVsl41Sg_7abKxAgzQOR-32" value="Take Quiz" style="whiteSpace=wrap;html=1;rounded=1;arcSize=0;" parent="1" vertex="1">
          <mxGeometry x="970" y="220" width="120" height="60" as="geometry" />
        </mxCell>
        <mxCell id="IVsl41Sg_7abKxAgzQOR-34" value="Shows Quiz by Catogory" style="whiteSpace=wrap;html=1;rounded=1;arcSize=0;" parent="1" vertex="1">
          <mxGeometry x="970" y="140" width="120" height="60" as="geometry" />
        </mxCell>
        <mxCell id="IVsl41Sg_7abKxAgzQOR-36" value="Result Download" style="whiteSpace=wrap;html=1;rounded=1;arcSize=0;" parent="1" vertex="1">
          <mxGeometry x="970" y="300" width="120" height="60" as="geometry" />
        </mxCell>
        <mxCell id="IVsl41Sg_7abKxAgzQOR-38" value="Attempted quiz" style="whiteSpace=wrap;html=1;rounded=1;arcSize=0;" parent="1" vertex="1">
          <mxGeometry x="970" y="380" width="120" height="60" as="geometry" />
        </mxCell>
        <mxCell id="IVsl41Sg_7abKxAgzQOR-41" value="Category operations" style="rounded=1;whiteSpace=wrap;html=1;arcSize=0;" parent="1" vertex="1">
          <mxGeometry x="470" y="715" width="120" height="60" as="geometry" />
        </mxCell>
        <mxCell id="IVsl41Sg_7abKxAgzQOR-43" value="Quiz operations" style="whiteSpace=wrap;html=1;rounded=1;arcSize=0;" parent="1" vertex="1">
          <mxGeometry x="660" y="715" width="120" height="60" as="geometry" />
        </mxCell>
        <mxCell id="IVsl41Sg_7abKxAgzQOR-45" value="Question operation" style="whiteSpace=wrap;html=1;rounded=1;arcSize=0;" parent="1" vertex="1">
          <mxGeometry x="810" y="715" width="120" height="60" as="geometry" />
        </mxCell>
        <mxCell id="IVsl41Sg_7abKxAgzQOR-47" value="Quiz Analysis" style="whiteSpace=wrap;html=1;rounded=1;arcSize=0;" parent="1" vertex="1">
          <mxGeometry x="980" y="715" width="120" height="60" as="geometry" />
        </mxCell>
      </root>
    </mxGraphModel>
  </diagram>
  <diagram id="f0md-XgaLFJ-SPm83p_S" name="ER diagram">
    <mxGraphModel dx="2150" dy="770" grid="1" gridSize="10" guides="1" tooltips="1" connect="1" arrows="1" fold="1" page="1" pageScale="1" pageWidth="827" pageHeight="1169" math="0" shadow="0">
      <root>
        <mxCell id="0" />
        <mxCell id="1" parent="0" />
        <mxCell id="KRzd4l3HArAzpKKTWBiv-6" style="rounded=0;orthogonalLoop=1;jettySize=auto;html=1;exitX=0.25;exitY=0;exitDx=0;exitDy=0;entryX=1;entryY=0.5;entryDx=0;entryDy=0;labelBackgroundColor=default;strokeColor=default;fontFamily=Helvetica;fontSize=11;fontColor=default;endArrow=none;elbow=vertical;endFill=0;" parent="1" source="KRzd4l3HArAzpKKTWBiv-1" target="KRzd4l3HArAzpKKTWBiv-2" edge="1">
          <mxGeometry relative="1" as="geometry" />
        </mxCell>
        <mxCell id="KRzd4l3HArAzpKKTWBiv-9" style="edgeStyle=none;shape=connector;rounded=0;orthogonalLoop=1;jettySize=auto;html=1;exitX=0.25;exitY=0;exitDx=0;exitDy=0;labelBackgroundColor=default;strokeColor=default;fontFamily=Helvetica;fontSize=11;fontColor=default;endArrow=none;endFill=0;elbow=vertical;entryX=1;entryY=0.5;entryDx=0;entryDy=0;" parent="1" source="KRzd4l3HArAzpKKTWBiv-1" target="KRzd4l3HArAzpKKTWBiv-10" edge="1">
          <mxGeometry relative="1" as="geometry">
            <mxPoint x="90" y="160" as="targetPoint" />
          </mxGeometry>
        </mxCell>
        <mxCell id="KRzd4l3HArAzpKKTWBiv-15" style="edgeStyle=none;shape=connector;rounded=0;orthogonalLoop=1;jettySize=auto;html=1;exitX=0.5;exitY=0;exitDx=0;exitDy=0;labelBackgroundColor=default;strokeColor=default;fontFamily=Helvetica;fontSize=11;fontColor=default;endArrow=none;endFill=0;elbow=vertical;entryX=0.5;entryY=1;entryDx=0;entryDy=0;" parent="1" source="KRzd4l3HArAzpKKTWBiv-1" target="KRzd4l3HArAzpKKTWBiv-16" edge="1">
          <mxGeometry relative="1" as="geometry">
            <mxPoint x="330" y="140" as="targetPoint" />
          </mxGeometry>
        </mxCell>
        <mxCell id="KRzd4l3HArAzpKKTWBiv-17" style="edgeStyle=none;shape=connector;rounded=0;orthogonalLoop=1;jettySize=auto;html=1;exitX=0.75;exitY=0;exitDx=0;exitDy=0;labelBackgroundColor=default;strokeColor=default;fontFamily=Helvetica;fontSize=11;fontColor=default;endArrow=none;endFill=0;elbow=vertical;entryX=0.5;entryY=1;entryDx=0;entryDy=0;" parent="1" source="KRzd4l3HArAzpKKTWBiv-1" target="KRzd4l3HArAzpKKTWBiv-18" edge="1">
          <mxGeometry relative="1" as="geometry">
            <mxPoint x="410" y="160" as="targetPoint" />
          </mxGeometry>
        </mxCell>
        <mxCell id="KRzd4l3HArAzpKKTWBiv-19" style="edgeStyle=none;shape=connector;rounded=0;orthogonalLoop=1;jettySize=auto;html=1;exitX=0.75;exitY=0;exitDx=0;exitDy=0;labelBackgroundColor=default;strokeColor=default;fontFamily=Helvetica;fontSize=11;fontColor=default;endArrow=none;endFill=0;elbow=vertical;entryX=0;entryY=1;entryDx=0;entryDy=0;" parent="1" source="KRzd4l3HArAzpKKTWBiv-1" target="KRzd4l3HArAzpKKTWBiv-20" edge="1">
          <mxGeometry relative="1" as="geometry">
            <mxPoint x="370" y="110" as="targetPoint" />
          </mxGeometry>
        </mxCell>
        <mxCell id="KRzd4l3HArAzpKKTWBiv-21" style="edgeStyle=none;shape=connector;rounded=0;orthogonalLoop=1;jettySize=auto;html=1;exitX=1;exitY=0;exitDx=0;exitDy=0;labelBackgroundColor=default;strokeColor=default;fontFamily=Helvetica;fontSize=11;fontColor=default;endArrow=none;endFill=0;elbow=vertical;entryX=0;entryY=0.5;entryDx=0;entryDy=0;" parent="1" source="KRzd4l3HArAzpKKTWBiv-1" target="KRzd4l3HArAzpKKTWBiv-22" edge="1">
          <mxGeometry relative="1" as="geometry">
            <mxPoint x="390" y="160" as="targetPoint" />
          </mxGeometry>
        </mxCell>
        <mxCell id="KRzd4l3HArAzpKKTWBiv-28" style="edgeStyle=none;shape=connector;rounded=0;orthogonalLoop=1;jettySize=auto;html=1;exitX=1;exitY=0;exitDx=0;exitDy=0;labelBackgroundColor=default;strokeColor=default;fontFamily=Helvetica;fontSize=11;fontColor=default;endArrow=none;endFill=0;elbow=vertical;entryX=0;entryY=0.5;entryDx=0;entryDy=0;" parent="1" source="KRzd4l3HArAzpKKTWBiv-1" target="KRzd4l3HArAzpKKTWBiv-29" edge="1">
          <mxGeometry relative="1" as="geometry">
            <mxPoint x="420" y="190" as="targetPoint" />
          </mxGeometry>
        </mxCell>
        <mxCell id="KRzd4l3HArAzpKKTWBiv-38" value="" style="edgeStyle=none;shape=connector;rounded=0;orthogonalLoop=1;jettySize=auto;html=1;labelBackgroundColor=default;strokeColor=default;fontFamily=Helvetica;fontSize=11;fontColor=default;endArrow=classic;endFill=1;elbow=vertical;labelPosition=right;verticalLabelPosition=top;align=left;verticalAlign=bottom;" parent="1" source="KRzd4l3HArAzpKKTWBiv-1" target="KRzd4l3HArAzpKKTWBiv-37" edge="1">
          <mxGeometry relative="1" as="geometry" />
        </mxCell>
        <mxCell id="KRzd4l3HArAzpKKTWBiv-1" value="User" style="whiteSpace=wrap;html=1;align=center;fontFamily=Helvetica;fontSize=11;fontColor=default;" parent="1" vertex="1">
          <mxGeometry x="160" y="220" width="100" height="40" as="geometry" />
        </mxCell>
        <mxCell id="KRzd4l3HArAzpKKTWBiv-2" value="username" style="ellipse;whiteSpace=wrap;html=1;align=center;fontStyle=0;fontFamily=Helvetica;fontSize=11;fontColor=default;strokeColor=default;" parent="1" vertex="1">
          <mxGeometry x="-40" y="200" width="100" height="40" as="geometry" />
        </mxCell>
        <mxCell id="KRzd4l3HArAzpKKTWBiv-10" value="id" style="ellipse;whiteSpace=wrap;html=1;align=center;fontFamily=Helvetica;fontSize=11;fontColor=default;fontStyle=4" parent="1" vertex="1">
          <mxGeometry x="-70" y="150" width="100" height="40" as="geometry" />
        </mxCell>
        <mxCell id="KRzd4l3HArAzpKKTWBiv-11" style="edgeStyle=none;shape=connector;rounded=0;orthogonalLoop=1;jettySize=auto;html=1;exitX=0.5;exitY=0;exitDx=0;exitDy=0;labelBackgroundColor=default;strokeColor=default;fontFamily=Helvetica;fontSize=11;fontColor=default;endArrow=none;endFill=0;elbow=vertical;entryX=0.5;entryY=1;entryDx=0;entryDy=0;" parent="1" source="KRzd4l3HArAzpKKTWBiv-1" target="KRzd4l3HArAzpKKTWBiv-12" edge="1">
          <mxGeometry relative="1" as="geometry">
            <mxPoint x="180" y="130" as="targetPoint" />
            <mxPoint x="250" y="190" as="sourcePoint" />
          </mxGeometry>
        </mxCell>
        <mxCell id="KRzd4l3HArAzpKKTWBiv-12" value="firsName" style="ellipse;whiteSpace=wrap;html=1;align=center;fontFamily=Helvetica;fontSize=11;fontColor=default;" parent="1" vertex="1">
          <mxGeometry x="-10" y="80" width="100" height="40" as="geometry" />
        </mxCell>
        <mxCell id="KRzd4l3HArAzpKKTWBiv-13" style="edgeStyle=none;shape=connector;rounded=0;orthogonalLoop=1;jettySize=auto;html=1;exitX=0.5;exitY=0;exitDx=0;exitDy=0;labelBackgroundColor=default;strokeColor=default;fontFamily=Helvetica;fontSize=11;fontColor=default;endArrow=none;endFill=0;elbow=vertical;entryX=0.5;entryY=1;entryDx=0;entryDy=0;" parent="1" source="KRzd4l3HArAzpKKTWBiv-1" target="KRzd4l3HArAzpKKTWBiv-14" edge="1">
          <mxGeometry relative="1" as="geometry">
            <mxPoint x="290" y="120" as="targetPoint" />
            <mxPoint x="360" y="180" as="sourcePoint" />
          </mxGeometry>
        </mxCell>
        <mxCell id="KRzd4l3HArAzpKKTWBiv-14" value="lastName" style="ellipse;whiteSpace=wrap;html=1;align=center;fontFamily=Helvetica;fontSize=11;fontColor=default;" parent="1" vertex="1">
          <mxGeometry x="60" y="40" width="100" height="40" as="geometry" />
        </mxCell>
        <mxCell id="KRzd4l3HArAzpKKTWBiv-16" value="Password" style="ellipse;whiteSpace=wrap;html=1;align=center;fontFamily=Helvetica;fontSize=11;fontColor=default;" parent="1" vertex="1">
          <mxGeometry x="160" y="20" width="100" height="40" as="geometry" />
        </mxCell>
        <mxCell id="KRzd4l3HArAzpKKTWBiv-18" value="email" style="ellipse;whiteSpace=wrap;html=1;align=center;fontFamily=Helvetica;fontSize=11;fontColor=default;" parent="1" vertex="1">
          <mxGeometry x="270" y="20" width="100" height="40" as="geometry" />
        </mxCell>
        <mxCell id="KRzd4l3HArAzpKKTWBiv-20" value="phone" style="ellipse;whiteSpace=wrap;html=1;align=center;fontFamily=Helvetica;fontSize=11;fontColor=default;" parent="1" vertex="1">
          <mxGeometry x="380" y="30" width="100" height="40" as="geometry" />
        </mxCell>
        <mxCell id="KRzd4l3HArAzpKKTWBiv-22" value="enable" style="ellipse;whiteSpace=wrap;html=1;align=center;fontFamily=Helvetica;fontSize=11;fontColor=default;" parent="1" vertex="1">
          <mxGeometry x="390" y="150" width="100" height="40" as="geometry" />
        </mxCell>
        <mxCell id="KRzd4l3HArAzpKKTWBiv-31" style="edgeStyle=none;shape=connector;rounded=0;orthogonalLoop=1;jettySize=auto;html=1;exitX=0.5;exitY=0;exitDx=0;exitDy=0;entryX=0.5;entryY=1;entryDx=0;entryDy=0;labelBackgroundColor=default;strokeColor=default;fontFamily=Helvetica;fontSize=11;fontColor=default;endArrow=none;endFill=0;elbow=vertical;" parent="1" source="KRzd4l3HArAzpKKTWBiv-23" target="KRzd4l3HArAzpKKTWBiv-30" edge="1">
          <mxGeometry relative="1" as="geometry" />
        </mxCell>
        <mxCell id="KRzd4l3HArAzpKKTWBiv-33" style="edgeStyle=none;shape=connector;rounded=0;orthogonalLoop=1;jettySize=auto;html=1;exitX=0.5;exitY=0;exitDx=0;exitDy=0;entryX=0.5;entryY=1;entryDx=0;entryDy=0;labelBackgroundColor=default;strokeColor=default;fontFamily=Helvetica;fontSize=11;fontColor=default;endArrow=none;endFill=0;elbow=vertical;" parent="1" source="KRzd4l3HArAzpKKTWBiv-23" target="KRzd4l3HArAzpKKTWBiv-32" edge="1">
          <mxGeometry relative="1" as="geometry" />
        </mxCell>
        <mxCell id="KRzd4l3HArAzpKKTWBiv-23" value="Role" style="whiteSpace=wrap;html=1;align=center;fontFamily=Helvetica;fontSize=11;fontColor=default;" parent="1" vertex="1">
          <mxGeometry x="760" y="210" width="100" height="40" as="geometry" />
        </mxCell>
        <mxCell id="KRzd4l3HArAzpKKTWBiv-26" style="edgeStyle=none;shape=connector;rounded=0;orthogonalLoop=1;jettySize=auto;html=1;exitX=0.5;exitY=0;exitDx=0;exitDy=0;entryX=0.5;entryY=1;entryDx=0;entryDy=0;labelBackgroundColor=default;strokeColor=default;fontFamily=Helvetica;fontSize=11;fontColor=default;endArrow=none;endFill=0;elbow=vertical;" parent="1" source="KRzd4l3HArAzpKKTWBiv-24" target="KRzd4l3HArAzpKKTWBiv-25" edge="1">
          <mxGeometry relative="1" as="geometry" />
        </mxCell>
        <mxCell id="KRzd4l3HArAzpKKTWBiv-34" style="edgeStyle=none;shape=connector;rounded=0;orthogonalLoop=1;jettySize=auto;html=1;exitX=0.5;exitY=0;exitDx=0;exitDy=0;entryX=0.5;entryY=1;entryDx=0;entryDy=0;labelBackgroundColor=default;strokeColor=default;fontFamily=Helvetica;fontSize=11;fontColor=default;endArrow=none;endFill=0;elbow=vertical;" parent="1" source="KRzd4l3HArAzpKKTWBiv-24" target="KRzd4l3HArAzpKKTWBiv-27" edge="1">
          <mxGeometry relative="1" as="geometry" />
        </mxCell>
        <mxCell id="KRzd4l3HArAzpKKTWBiv-35" style="edgeStyle=none;shape=connector;rounded=0;orthogonalLoop=1;jettySize=auto;html=1;exitX=0.5;exitY=0;exitDx=0;exitDy=0;labelBackgroundColor=default;strokeColor=default;fontFamily=Helvetica;fontSize=11;fontColor=default;endArrow=none;endFill=0;elbow=vertical;entryX=0.5;entryY=1;entryDx=0;entryDy=0;" parent="1" source="KRzd4l3HArAzpKKTWBiv-24" target="KRzd4l3HArAzpKKTWBiv-36" edge="1">
          <mxGeometry relative="1" as="geometry">
            <mxPoint x="645" y="400" as="targetPoint" />
          </mxGeometry>
        </mxCell>
        <mxCell id="KRzd4l3HArAzpKKTWBiv-44" value="" style="edgeStyle=none;shape=connector;rounded=0;orthogonalLoop=1;jettySize=auto;html=1;labelBackgroundColor=default;strokeColor=default;fontFamily=Helvetica;fontSize=11;fontColor=default;endArrow=none;endFill=0;elbow=vertical;startArrow=classic;startFill=1;" parent="1" source="KRzd4l3HArAzpKKTWBiv-24" target="KRzd4l3HArAzpKKTWBiv-43" edge="1">
          <mxGeometry relative="1" as="geometry" />
        </mxCell>
        <mxCell id="KRzd4l3HArAzpKKTWBiv-24" value="User_Role" style="whiteSpace=wrap;html=1;align=center;fontFamily=Helvetica;fontSize=11;fontColor=default;" parent="1" vertex="1">
          <mxGeometry x="480" y="480" width="100" height="40" as="geometry" />
        </mxCell>
        <mxCell id="KRzd4l3HArAzpKKTWBiv-25" value="userRoleId" style="ellipse;whiteSpace=wrap;html=1;align=center;fontStyle=4;fontFamily=Helvetica;fontSize=11;fontColor=default;" parent="1" vertex="1">
          <mxGeometry x="400" y="400" width="100" height="40" as="geometry" />
        </mxCell>
        <mxCell id="KRzd4l3HArAzpKKTWBiv-27" value="userId" style="ellipse;whiteSpace=wrap;html=1;align=center;fontFamily=Helvetica;fontSize=11;fontColor=default;" parent="1" vertex="1">
          <mxGeometry x="490" y="370" width="100" height="40" as="geometry" />
        </mxCell>
        <mxCell id="KRzd4l3HArAzpKKTWBiv-29" value="about" style="ellipse;whiteSpace=wrap;html=1;align=center;fontFamily=Helvetica;fontSize=11;fontColor=default;" parent="1" vertex="1">
          <mxGeometry x="400" y="90" width="100" height="40" as="geometry" />
        </mxCell>
        <mxCell id="KRzd4l3HArAzpKKTWBiv-30" value="roleId" style="ellipse;whiteSpace=wrap;html=1;align=center;fontFamily=Helvetica;fontSize=11;fontColor=default;" parent="1" vertex="1">
          <mxGeometry x="700" y="110" width="100" height="40" as="geometry" />
        </mxCell>
        <mxCell id="KRzd4l3HArAzpKKTWBiv-32" value="roleName" style="ellipse;whiteSpace=wrap;html=1;align=center;fontFamily=Helvetica;fontSize=11;fontColor=default;" parent="1" vertex="1">
          <mxGeometry x="810" y="110" width="100" height="40" as="geometry" />
        </mxCell>
        <mxCell id="KRzd4l3HArAzpKKTWBiv-36" value="roleId" style="ellipse;whiteSpace=wrap;html=1;align=center;fontFamily=Helvetica;fontSize=11;fontColor=default;" parent="1" vertex="1">
          <mxGeometry x="590" y="360" width="100" height="40" as="geometry" />
        </mxCell>
        <mxCell id="KRzd4l3HArAzpKKTWBiv-39" style="edgeStyle=none;shape=connector;rounded=0;orthogonalLoop=1;jettySize=auto;html=1;exitX=1;exitY=0.5;exitDx=0;exitDy=0;entryX=0;entryY=0.5;entryDx=0;entryDy=0;labelBackgroundColor=default;strokeColor=default;fontFamily=Helvetica;fontSize=11;fontColor=default;endArrow=classic;endFill=1;elbow=vertical;" parent="1" source="KRzd4l3HArAzpKKTWBiv-37" target="KRzd4l3HArAzpKKTWBiv-24" edge="1">
          <mxGeometry relative="1" as="geometry" />
        </mxCell>
        <mxCell id="KRzd4l3HArAzpKKTWBiv-37" value="has" style="rhombus;whiteSpace=wrap;html=1;fontSize=11;" parent="1" vertex="1">
          <mxGeometry x="170" y="460" width="80" height="80" as="geometry" />
        </mxCell>
        <mxCell id="KRzd4l3HArAzpKKTWBiv-40" value="1" style="text;html=1;align=center;verticalAlign=middle;resizable=0;points=[];autosize=1;strokeColor=none;fillColor=none;fontSize=11;fontFamily=Helvetica;fontColor=default;" parent="1" vertex="1">
          <mxGeometry x="210" y="260" width="30" height="30" as="geometry" />
        </mxCell>
        <mxCell id="KRzd4l3HArAzpKKTWBiv-42" value="n" style="text;html=1;align=center;verticalAlign=middle;resizable=0;points=[];autosize=1;strokeColor=none;fillColor=none;fontSize=11;fontFamily=Helvetica;fontColor=default;" parent="1" vertex="1">
          <mxGeometry x="450" y="470" width="30" height="30" as="geometry" />
        </mxCell>
        <mxCell id="KRzd4l3HArAzpKKTWBiv-45" style="edgeStyle=none;shape=connector;rounded=0;orthogonalLoop=1;jettySize=auto;html=1;exitX=0.5;exitY=0;exitDx=0;exitDy=0;entryX=0.5;entryY=1;entryDx=0;entryDy=0;labelBackgroundColor=default;strokeColor=default;fontFamily=Helvetica;fontSize=11;fontColor=default;endArrow=none;endFill=0;elbow=vertical;startArrow=classic;startFill=1;" parent="1" source="KRzd4l3HArAzpKKTWBiv-43" target="KRzd4l3HArAzpKKTWBiv-23" edge="1">
          <mxGeometry relative="1" as="geometry" />
        </mxCell>
        <mxCell id="KRzd4l3HArAzpKKTWBiv-43" value="has" style="rhombus;whiteSpace=wrap;html=1;fontSize=11;" parent="1" vertex="1">
          <mxGeometry x="770" y="460" width="80" height="80" as="geometry" />
        </mxCell>
        <mxCell id="KRzd4l3HArAzpKKTWBiv-46" value="1" style="text;html=1;align=center;verticalAlign=middle;resizable=0;points=[];autosize=1;strokeColor=none;fillColor=none;fontSize=11;fontFamily=Helvetica;fontColor=default;" parent="1" vertex="1">
          <mxGeometry x="810" y="250" width="30" height="30" as="geometry" />
        </mxCell>
        <mxCell id="KRzd4l3HArAzpKKTWBiv-48" value="n" style="text;html=1;align=center;verticalAlign=middle;resizable=0;points=[];autosize=1;strokeColor=none;fillColor=none;fontSize=11;fontFamily=Helvetica;fontColor=default;" parent="1" vertex="1">
          <mxGeometry x="580" y="470" width="30" height="30" as="geometry" />
        </mxCell>
      </root>
    </mxGraphModel>
  </diagram>
</mxfile>
